# This file uses centimeters as units for non-parametric coordinates.

mtllib Íä¼ıÍ·×ó3.mtl
g bend1Set tweakSet1
v 2.013346 -0.117709 9.303990
v 3.412550 -0.117709 8.346744
v 2.013346 0.117709 9.303990
v 3.412550 0.117709 8.346744
v 1.223745 0.117709 7.872931
v 2.579887 0.117709 7.131977
v 0.566478 0.112477 6.384439
v 1.886991 0.112477 5.825974
v 0.066687 0.106853 4.841864
v 1.322197 0.106853 4.453276
v -0.294402 0.098543 3.266795
v 0.914905 0.098543 3.021396
v -0.505186 0.089783 1.668456
v 0.661184 0.089783 1.551123
v -0.586128 0.089783 0.060148
v 0.586129 0.089783 0.059784
v -0.536881 0.098543 -1.551279
v 0.690954 0.098543 -1.428534
v -0.335754 0.106853 -3.154642
v 0.952427 0.106853 -2.894070
v 0.006638 0.112477 -4.739601
v 1.376549 0.112477 -4.316536
v 0.511140 0.117709 -6.286563
v 1.934822 0.117709 -5.685508
v 0.511140 -0.117709 -6.286563
v 1.934822 -0.117709 -5.685508
v 0.006638 -0.112477 -4.739601
v 1.376549 -0.112477 -4.316536
v -0.335754 -0.106854 -3.154642
v 0.952427 -0.106854 -2.894070
v -0.536881 -0.098543 -1.551278
v 0.690954 -0.098543 -1.428533
v -0.586128 -0.089783 0.060148
v 0.586129 -0.089783 0.059784
v -0.505186 -0.089783 1.668456
v 0.661184 -0.089783 1.551124
v -0.294401 -0.098543 3.266796
v 0.914905 -0.098543 3.021397
v 0.066687 -0.106854 4.841865
v 1.322197 -0.106854 4.453276
v 0.566478 -0.112477 6.384439
v 1.886991 -0.112477 5.825974
v 1.223745 -0.117709 7.872931
v 2.579887 -0.117709 7.131977
v -0.338717 0.117709 -6.645359
v 2.784679 0.117709 -5.326712
v 2.784679 -0.117709 -5.326712
v -0.338717 -0.117709 -6.645359
v 2.712948 0.117709 -8.715079
v 2.712948 -0.117709 -8.715079
v 1.222981 -0.117709 -5.986035
v 0.694244 -0.112477 -4.527250
v 0.310830 -0.106854 -3.023852
v 0.079412 -0.098543 -1.489668
v 0.002269 -0.089783 0.059966
v 0.080256 -0.089783 1.609563
v 0.312592 -0.098543 3.143621
v 0.696872 -0.106854 4.646819
v 1.229290 -0.112477 6.104126
v 1.904440 -0.117709 7.501020
v 2.013603 -0.117709 7.697427
v 2.013603 0.117709 7.697427
v 1.904440 0.117709 7.501020
v 1.229289 0.112477 6.104126
v 0.696871 0.106853 4.646818
v 0.312592 0.098543 3.143621
v 0.080256 0.089783 1.609562
v 0.002269 0.089783 0.059965
v 0.079412 0.098543 -1.489669
v 0.310830 0.106853 -3.023852
v 0.694244 0.112477 -4.527250
v 1.222981 0.117709 -5.986035
vt 0.375000 0.000000
vt 0.625000 0.000000
vt 0.375000 0.250000
vt 0.625000 0.250000
vt 0.375000 0.275000
vt 0.625000 0.275000
vt 0.375000 0.300000
vt 0.625000 0.300000
vt 0.375000 0.325000
vt 0.625000 0.325000
vt 0.375000 0.350000
vt 0.625000 0.350000
vt 0.375000 0.375000
vt 0.625000 0.375000
vt 0.375000 0.400000
vt 0.625000 0.400000
vt 0.375000 0.425000
vt 0.625000 0.425000
vt 0.375000 0.450000
vt 0.625000 0.450000
vt 0.375000 0.475000
vt 0.625000 0.475000
vt 0.375000 0.500000
vt 0.625000 0.500000
vt 0.375000 0.750000
vt 0.625000 0.750000
vt 0.375000 0.775000
vt 0.625000 0.775000
vt 0.375000 0.800000
vt 0.625000 0.800000
vt 0.375000 0.825000
vt 0.625000 0.825000
vt 0.375000 0.850000
vt 0.625000 0.850000
vt 0.375000 0.875000
vt 0.625000 0.875000
vt 0.375000 0.900000
vt 0.625000 0.900000
vt 0.375000 0.925000
vt 0.625000 0.925000
vt 0.375000 0.950000
vt 0.625000 0.950000
vt 0.375000 0.975000
vt 0.625000 0.975000
vt 0.375000 1.000000
vt 0.625000 1.000000
vt 0.875000 0.000000
vt 0.850000 0.000000
vt 0.825000 0.000000
vt 0.800000 0.000000
vt 0.775000 0.000000
vt 0.750000 0.000000
vt 0.725000 0.000000
vt 0.700000 0.000000
vt 0.675000 0.000000
vt 0.650000 0.000000
vt 0.875000 0.250000
vt 0.850000 0.250000
vt 0.825000 0.250000
vt 0.800000 0.250000
vt 0.775000 0.250000
vt 0.750000 0.250000
vt 0.725000 0.250000
vt 0.700000 0.250000
vt 0.675000 0.250000
vt 0.650000 0.250000
vt 0.125000 0.000000
vt 0.150000 0.000000
vt 0.175000 0.000000
vt 0.200000 0.000000
vt 0.225000 0.000000
vt 0.250000 0.000000
vt 0.275000 0.000000
vt 0.300000 0.000000
vt 0.325000 0.000000
vt 0.350000 0.000000
vt 0.125000 0.250000
vt 0.150000 0.250000
vt 0.175000 0.250000
vt 0.200000 0.250000
vt 0.225000 0.250000
vt 0.250000 0.250000
vt 0.275000 0.250000
vt 0.300000 0.250000
vt 0.325000 0.250000
vt 0.350000 0.250000
vt 0.375000 0.500000
vt 0.625000 0.500000
vt 0.625000 0.750000
vt 0.375000 0.750000
vt 0.500000 0.500000
vt 0.500000 0.750000
vt 0.499190 0.750000
vt 0.499190 0.775000
vt 0.499190 0.800000
vt 0.499190 0.825000
vt 0.499190 0.850000
vt 0.499190 0.875000
vt 0.499190 0.900000
vt 0.499190 0.925000
vt 0.499190 0.950000
vt 0.499190 0.975000
vt 0.499190 0.000000
vt 0.499190 1.000000
vt 0.499190 0.250000
vt 0.499190 0.275000
vt 0.499190 0.300000
vt 0.499190 0.325000
vt 0.499190 0.350000
vt 0.499190 0.375000
vt 0.499190 0.400000
vt 0.499190 0.425000
vt 0.499190 0.450000
vt 0.499190 0.475000
vt 0.499190 0.500000
vn 1.000000 0.000000 0.000160
vn 0.564642 0.000000 0.825336
vn 0.564642 0.000000 0.825336
vn 1.000000 0.000000 0.000160
vn 0.000000 1.000000 0.000000
vn 0.000000 1.000000 -0.000000
vn -0.000918 0.999998 -0.001891
vn -0.001348 0.999995 -0.002777
vn -0.001363 0.999994 -0.003203
vn -0.001250 0.999994 -0.003283
vn -0.001288 0.999990 -0.004249
vn -0.001294 0.999987 -0.004811
vn -0.001098 0.999985 -0.005365
vn -0.000934 0.999985 -0.005393
vn -0.000431 0.999996 -0.002822
vn -0.000256 0.999999 -0.001675
vn -0.000145 0.999996 0.002843
vn -0.000151 0.999996 0.002964
vn -0.000553 0.999985 0.005442
vn -0.000453 0.999985 0.005416
vn -0.000854 0.999990 0.004355
vn -0.000811 0.999988 0.004809
vn -0.001035 0.999994 0.003323
vn -0.000922 0.999994 0.003381
vn -0.001182 0.999994 0.003222
vn -0.001133 0.999995 0.003092
vn -0.001133 -0.999995 0.003092
vn -0.001182 -0.999994 0.003222
vn -0.001035 -0.999994 0.003323
vn -0.000922 -0.999994 0.003381
vn -0.000854 -0.999990 0.004355
vn -0.000811 -0.999988 0.004809
vn -0.000553 -0.999985 0.005442
vn -0.000453 -0.999985 0.005416
vn -0.000145 -0.999996 0.002843
vn -0.000151 -0.999996 0.002964
vn -0.000431 -0.999996 -0.002822
vn -0.000256 -0.999999 -0.001675
vn -0.001098 -0.999985 -0.005365
vn -0.000934 -0.999985 -0.005393
vn -0.001288 -0.999990 -0.004249
vn -0.001294 -0.999987 -0.004811
vn -0.001363 -0.999994 -0.003203
vn -0.001250 -0.999994 -0.003283
vn -0.000918 -0.999998 -0.001891
vn -0.001348 -0.999995 -0.002777
vn 0.000000 -1.000000 0.000000
vn 0.000000 -1.000000 -0.000000
vn 0.941948 0.000000 0.335759
vn 0.925964 0.000000 0.377612
vn 0.925964 0.000000 0.377612
vn 0.941948 0.000000 0.335759
vn 0.971112 0.000000 0.238624
vn 0.971112 0.000000 0.238624
vn 0.990875 0.000000 0.134787
vn 0.990875 0.000000 0.134787
vn 0.999853 0.000000 0.017142
vn 0.999853 0.000000 0.017142
vn 0.993261 -0.000000 -0.115902
vn 0.993261 -0.000000 -0.115902
vn 0.972977 0.000000 -0.230901
vn 0.972977 0.000000 -0.230901
vn 0.942773 0.000001 -0.333435
vn 0.942773 0.000001 -0.333435
vn 0.903725 0.000001 -0.428114
vn 0.903725 0.000001 -0.428114
vn 0.854592 0.000000 -0.519300
vn 0.854592 0.000000 -0.519300
vn 0.824830 0.000000 -0.565380
vn 0.824830 0.000000 -0.565380
vn -0.950719 0.000000 -0.310053
vn -0.964119 0.000000 -0.265469
vn -0.964119 0.000000 -0.265469
vn -0.950719 0.000000 -0.310053
vn -0.984630 0.000000 -0.174654
vn -0.984630 0.000000 -0.174654
vn -0.996076 0.000000 -0.088503
vn -0.996076 0.000000 -0.088503
vn -0.999988 0.000000 0.004986
vn -0.999988 0.000000 0.004986
vn -0.995523 0.000000 0.094516
vn -0.995523 0.000000 0.094516
vn -0.982611 -0.000000 0.185677
vn -0.982611 -0.000000 0.185677
vn -0.962534 -0.000000 0.271162
vn -0.962534 -0.000000 0.271162
vn -0.932884 -0.000000 0.360178
vn -0.932884 -0.000000 0.360178
vn -0.895364 -0.000000 0.445335
vn -0.895364 -0.000000 0.445335
vn -0.875564 0.000000 0.483102
vn -0.875564 0.000000 0.483102
vn 0.000000 0.996130 0.087888
vn 0.000000 0.000000 0.000000
vn 0.000000 0.000000 0.000000
vn -0.388942 0.000000 0.921262
vn -0.388942 0.000000 0.921262
vn -0.388942 0.000000 0.921262
vn -0.388942 0.000000 0.921262
vn 0.000000 0.000000 0.000000
vn 0.000000 -1.000000 0.000000
vn 0.000000 0.000000 0.000000
vn -0.388941 0.000000 0.921263
vn -0.388941 0.000000 0.921263
vn -0.388941 0.000000 0.921263
vn -0.388941 0.000000 0.921263
vn 0.000000 1.000000 -0.000000
vn 0.000000 1.000000 -0.000000
vn 0.000000 1.000000 -0.000000
vn 0.000000 1.000000 -0.000000
vn 0.999776 0.000000 -0.021165
vn 0.999776 0.000000 -0.021165
vn 0.999776 0.000000 -0.021165
vn 0.999776 0.000000 -0.021165
vn 0.000000 -1.000000 0.000000
vn 0.000000 -1.000000 0.000000
vn 0.000000 -1.000000 0.000000
vn 0.000000 -1.000000 0.000000
vn -0.561306 0.000000 -0.827608
vn -0.561306 0.000000 -0.827608
vn -0.561306 0.000000 -0.827608
vn -0.561306 0.000000 -0.827608
vn 0.000000 0.000000 0.000000
vn 0.000000 0.000000 0.000000
vn 0.000000 0.000000 0.000000
vn -0.001189 -0.999994 0.003243
vn -0.001154 -0.999994 0.003289
vn -0.000904 -0.999992 0.003939
vn -0.000664 -0.999985 0.005509
vn -0.000152 -0.999996 0.002982
vn -0.000585 -0.999992 -0.003831
vn -0.001263 -0.999985 -0.005375
vn -0.001291 -0.999992 -0.003737
vn -0.001484 -0.999994 -0.003148
vn -0.000238 -1.000000 -0.000490
vn 0.000000 -1.000000 0.000000
vn -0.421008 0.000000 0.907057
vn -0.421008 0.000000 0.907057
vn 0.000000 1.000000 -0.000000
vn -0.000238 1.000000 -0.000490
vn -0.001484 0.999994 -0.003148
vn -0.001291 0.999992 -0.003737
vn -0.001263 0.999985 -0.005375
vn -0.000585 0.999992 -0.003831
vn -0.000152 0.999996 0.002982
vn -0.000664 0.999985 0.005509
vn -0.000904 0.999992 0.003939
vn -0.001154 0.999994 0.003289
vn -0.001189 0.999994 0.003243
vn 0.000000 0.000000 0.000000
vn 0.000000 0.000000 1.000000
vn 0.000000 0.000000 0.000000
s 1
g pCube1
usemtl initialShadingGroup
f 1/1/1 61/103/2 62/105/3 3/3/4
s 2
f 3/3/5 62/105/6 63/106/7 5/5/8
f 5/5/8 63/106/7 64/107/9 7/7/10
f 7/7/10 64/107/9 65/108/11 9/9/12
f 9/9/12 65/108/11 66/109/13 11/11/14
f 11/11/14 66/109/13 67/110/15 13/13/16
f 13/13/16 67/110/15 68/111/17 15/15/18
f 15/15/18 68/111/17 69/112/19 17/17/20
f 17/17/20 69/112/19 70/113/21 19/19/22
f 19/19/22 70/113/21 71/114/23 21/21/24
f 21/21/24 71/114/23 72/115/25 23/23/26
s 3
f 25/25/27 51/93/28 52/94/29 27/27/30
f 27/27/30 52/94/29 53/95/31 29/29/32
f 29/29/32 53/95/31 54/96/33 31/31/34
f 31/31/34 54/96/33 55/97/35 33/33/36
f 33/33/36 55/97/35 56/98/37 35/35/38
f 35/35/38 56/98/37 57/99/39 37/37/40
f 37/37/40 57/99/39 58/100/41 39/39/42
f 39/39/42 58/100/41 59/101/43 41/41/44
f 41/41/44 59/101/43 60/102/45 43/43/46
f 43/43/46 60/102/45 61/104/47 1/45/48
s 4
f 28/48/49 26/47/50 24/57/51 22/58/52
f 30/49/53 28/48/49 22/58/52 20/59/54
f 32/50/55 30/49/53 20/59/54 18/60/56
f 34/51/57 32/50/55 18/60/56 16/61/58
f 36/52/59 34/51/57 16/61/58 14/62/60
f 38/53/61 36/52/59 14/62/60 12/63/62
f 40/54/63 38/53/61 12/63/62 10/64/64
f 42/55/65 40/54/63 10/64/64 8/65/66
f 44/56/67 42/55/65 8/65/66 6/66/68
f 2/2/69 44/56/67 6/66/68 4/4/70
s 5
f 25/67/71 27/68/72 21/78/73 23/77/74
f 27/68/72 29/69/75 19/79/76 21/78/73
f 29/69/75 31/70/77 17/80/78 19/79/76
f 31/70/77 33/71/79 15/81/80 17/80/78
f 33/71/79 35/72/81 13/82/82 15/81/80
f 35/72/81 37/73/83 11/83/84 13/82/82
f 37/73/83 39/74/85 9/84/86 11/83/84
f 39/74/85 41/75/87 7/85/88 9/84/86
f 41/75/87 43/76/89 5/86/90 7/85/88
f 43/76/89 1/1/91 3/3/92 5/86/90
s off
f 23/23/93 72/115/94 45/87/95
f 24/24/96 26/26/97 47/89/98 46/88/99
f 51/93/100 25/25/101 48/90/102
f 25/25/103 23/23/104 45/87/105 48/90/106
f 45/87/107 72/115/108 46/88/109 49/91/110
f 46/88/111 47/89/112 50/92/113 49/91/114
f 47/89/115 51/93/116 48/90/117 50/92/118
f 48/90/119 45/87/120 49/91/121 50/92/122
f 26/26/123 51/93/124 47/89/125
s 3
f 52/94/29 51/93/28 26/26/126 28/28/127
f 53/95/31 52/94/29 28/28/127 30/30/128
f 54/96/33 53/95/31 30/30/128 32/32/129
f 55/97/35 54/96/33 32/32/129 34/34/130
f 56/98/37 55/97/35 34/34/130 36/36/131
f 57/99/39 56/98/37 36/36/131 38/38/132
f 58/100/41 57/99/39 38/38/132 40/40/133
f 59/101/43 58/100/41 40/40/133 42/42/134
f 60/102/45 59/101/43 42/42/134 44/44/135
f 61/104/47 60/102/45 44/44/135 2/46/136
s 1
f 62/105/3 61/103/2 2/2/137 4/4/138
s 2
f 63/106/7 62/105/6 4/4/139 6/6/140
f 64/107/9 63/106/7 6/6/140 8/8/141
f 65/108/11 64/107/9 8/8/141 10/10/142
f 66/109/13 65/108/11 10/10/142 12/12/143
f 67/110/15 66/109/13 12/12/143 14/14/144
f 68/111/17 67/110/15 14/14/144 16/16/145
f 69/112/19 68/111/17 16/16/145 18/18/146
f 70/113/21 69/112/19 18/18/146 20/20/147
f 71/114/23 70/113/21 20/20/147 22/22/148
f 72/115/25 71/114/23 22/22/148 24/24/149
s off
f 72/115/150 24/24/151 46/88/152
